<?xml version="1.0" encoding="UTF-8"?>
<svg width="22px" height="19px" viewBox="0 0 22 19" version="1.1" xmlns="http://www.w3.org/2000/svg" xmlns:xlink="http://www.w3.org/1999/xlink">
    <!-- Generator: Sketch 44.1 (41455) - http://www.bohemiancoding.com/sketch -->
    <title>Icon/Regio Copy</title>
    <desc>Created with Sketch.</desc>
    <defs></defs>
    <g id="V2" stroke="none" stroke-width="1" fill="none" fill-rule="evenodd">
        <g id="04_okra_in_je_buurt_zoekresultaat-copy" transform="translate(-434.000000, -1900.000000)" fill-rule="nonzero" fill="#58585B">
            <g id="Group-4" transform="translate(121.000000, 1395.000000)">
                <g id="Group-5-Copy" transform="translate(309.000000, 499.000000)">
                    <g id="Icon/House" transform="translate(0.201172, 0.822754)">
                        <path d="M10.5,17.5 C10.5,17.2238576 10.7238576,17 11,17 L15,17 C15.2761424,17 15.5,17.2238576 15.5,17.5 L15.5,23 L21.5,23 L21.5,15.5 C21.5,15.2238576 21.7238576,15 22,15 L23.6970209,15 L15,7.1726812 L6.30297911,15 L8,15 C8.27614237,15 8.5,15.2238576 8.5,15.5 L8.5,23 L10.5,23 L10.5,17.5 Z M11.5,18 L11.5,23.5 C11.5,23.7761424 11.2761424,24 11,24 L8,24 C7.72385763,24 7.5,23.7761424 7.5,23.5 L7.5,16 L5,16 C4.54175792,16 4.32490898,15.4349007 4.66551763,15.1283529 L14.6655176,6.12835293 C14.8556701,5.95721569 15.1443299,5.95721569 15.3344824,6.12835293 L25.3344824,15.1283529 C25.675091,15.4349007 25.4582421,16 25,16 L22.5,16 L22.5,23.5 C22.5,23.7761424 22.2761424,24 22,24 L15,24 C14.7238576,24 14.5,23.7761424 14.5,23.5 L14.5,18 L11.5,18 Z M16.5,17.5 C16.5,17.2238576 16.7238576,17 17,17 L20,17 C20.2761424,17 20.5,17.2238576 20.5,17.5 L20.5,20.5 C20.5,20.7761424 20.2761424,21 20,21 L17,21 C16.7238576,21 16.5,20.7761424 16.5,20.5 L16.5,17.5 Z M17.5,20 L19.5,20 L19.5,18 L17.5,18 L17.5,20 Z" id="Shape"></path>
                    </g>
                </g>
            </g>
        </g>
    </g>
</svg>