<?xml version="1.0" encoding="UTF-8"?>
<svg width="20px" height="29px" viewBox="0 0 20 29" version="1.1" xmlns="http://www.w3.org/2000/svg" xmlns:xlink="http://www.w3.org/1999/xlink">
    <!-- Generator: Sketch 44.1 (41455) - http://www.bohemiancoding.com/sketch -->
    <title>Icon/Location</title>
    <desc>Created with Sketch.</desc>
    <defs></defs>
    <g id="V2" stroke="none" stroke-width="1" fill="none" fill-rule="evenodd">
        <g id="08_activiteiten_detail-copy" transform="translate(-958.000000, -471.000000)" fill-rule="nonzero" fill="#58585B">
            <g id="Algemene-info" transform="translate(930.000000, 364.000000)">
                <g id="Group" transform="translate(0.000000, 85.000000)">
                    <g id="Icon/Location" transform="translate(23.000000, 21.000000)">
                        <path d="M15,1 C20.5006424,1 24.95,5.44935763 24.95,10.95 C24.95,12.6526786 24.4395842,14.5959045 23.4952875,16.7391208 C22.6649042,18.6237944 21.5199141,20.616466 20.1394822,22.6624632 C19.0970046,24.2075639 17.9809311,25.6943333 16.8647915,27.0695766 C16.4740108,27.5510743 16.1109647,27.9844357 15.784859,28.3629512 C15.5884387,28.5909391 15.447432,28.7505788 15.3710513,28.8351431 L15,29.2459499 L14.6289487,28.8351431 C14.552568,28.7505788 14.4115613,28.5909391 14.215141,28.3629512 C13.8890353,27.9844357 13.5259892,27.5510743 13.1352085,27.0695766 C12.0190689,25.6943333 10.9029954,24.2075639 9.86051778,22.6624632 C8.48008593,20.616466 7.33509583,18.6237944 6.50471252,16.7391208 C5.5604158,14.5959045 5.05,12.6526786 5.05,10.95 C5.05,5.44935763 9.49935763,1 15,1 Z M16.0883335,26.4394077 C17.1870377,25.0856472 18.2858079,23.6219283 19.3105178,22.1031618 C20.6601015,20.1028859 21.7765074,18.1599607 22.5801743,16.3359238 C23.4731986,14.3090776 23.95,12.4938264 23.95,10.95 C23.95,6.00164237 19.9483576,2 15,2 C10.0516424,2 6.05,6.00164237 6.05,10.95 C6.05,12.4938264 6.52680145,14.3090776 7.41982572,16.3359238 C8.22349263,18.1599607 9.33989845,20.1028859 10.6894822,22.1031618 C11.7141921,23.6219283 12.8129623,25.0856472 13.9116665,26.4394077 C14.2960811,26.9130614 14.6528592,27.3389407 14.9727497,27.7102422 C15.3471408,27.3389407 15.7039189,26.9130614 16.0883335,26.4394077 Z M15,13.825 C16.5868576,13.825 17.875,12.5368576 17.875,10.95 C17.875,9.36314237 16.5868576,8.075 15,8.075 C13.4131424,8.075 12.125,9.36314237 12.125,10.95 C12.125,12.5368576 13.4131424,13.825 15,13.825 Z M15,14.825 C12.8608576,14.825 11.125,13.0891424 11.125,10.95 C11.125,8.81085763 12.8608576,7.075 15,7.075 C17.1391424,7.075 18.875,8.81085763 18.875,10.95 C18.875,13.0891424 17.1391424,14.825 15,14.825 Z" id="Shape"></path>
                    </g>
                </g>
            </g>
        </g>
    </g>
</svg>