<?xml version="1.0" encoding="UTF-8"?>
<svg width="22px" height="22px" viewBox="0 0 22 22" version="1.1" xmlns="http://www.w3.org/2000/svg" xmlns:xlink="http://www.w3.org/1999/xlink">
    <!-- Generator: Sketch 44.1 (41455) - http://www.bohemiancoding.com/sketch -->
    <title>Icon/Location</title>
    <desc>Created with Sketch.</desc>
    <defs></defs>
    <g id="V2" stroke="none" stroke-width="1" fill="none" fill-rule="evenodd">
        <g id="08_activiteiten_detail-copy" transform="translate(-957.000000, -814.000000)" fill-rule="nonzero" fill="#58585B">
            <g id="Algemene-info" transform="translate(930.000000, 364.000000)">
                <g id="Group-Copy-4" transform="translate(0.000000, 425.000000)">
                    <g id="Icon/Members" transform="translate(23.000000, 21.000000)">
                        <path d="M7,20.3454915 C5.61385763,20.3454915 4.5,19.2316339 4.5,17.8454915 L4.5,6.8454915 C4.5,5.45934913 5.61385763,4.3454915 7,4.3454915 L23,4.3454915 C24.3861424,4.3454915 25.5,5.45934913 25.5,6.8454915 L25.5,17.8454915 C25.5,19.2316339 24.3861424,20.3454915 23,20.3454915 L19.5,20.3454915 L19.5,25.6545085 L15,23.4045085 L10.5,25.6545085 L10.5,20.3454915 L7,20.3454915 Z M18.5,19.3454915 L23,19.3454915 C23.8338576,19.3454915 24.5,18.6793491 24.5,17.8454915 L24.5,6.8454915 C24.5,6.01163388 23.8338576,5.3454915 23,5.3454915 L7,5.3454915 C6.16614237,5.3454915 5.5,6.01163388 5.5,6.8454915 L5.5,17.8454915 C5.5,18.6793491 6.16614237,19.3454915 7,19.3454915 L11.5,19.3454915 L11.5,24.0364745 L15,22.2864745 L18.5,24.0364745 L18.5,19.3454915 Z M22.5,17.3454915 L22.5,16.3454915 L7.5,16.3454915 L7.5,17.3454915 L22.5,17.3454915 Z M6.5,18.3454915 L6.5,15.3454915 L23.5,15.3454915 L23.5,18.3454915 L6.5,18.3454915 Z M22.5,12.3454915 L22.5,7.3454915 L7.5,7.3454915 L7.5,12.3454915 L22.5,12.3454915 Z M6.5,13.3454915 L6.5,6.3454915 L23.5,6.3454915 L23.5,13.3454915 L6.5,13.3454915 Z" id="Shape"></path>
                    </g>
                </g>
            </g>
        </g>
    </g>
</svg>