<?xml version="1.0" encoding="UTF-8"?>
<svg width="24px" height="18px" viewBox="0 0 24 18" version="1.1" xmlns="http://www.w3.org/2000/svg" xmlns:xlink="http://www.w3.org/1999/xlink">
    <!-- Generator: Sketch 44.1 (41455) - http://www.bohemiancoding.com/sketch -->
    <title>Icon/Location</title>
    <desc>Created with Sketch.</desc>
    <defs></defs>
    <g id="V2" stroke="none" stroke-width="1" fill="none" fill-rule="evenodd">
        <g id="08_activiteiten_detail-copy" transform="translate(-956.000000, -746.000000)" fill-rule="nonzero" fill="#58585B">
            <g id="Algemene-info" transform="translate(930.000000, 364.000000)">
                <g id="Group-Copy-3" transform="translate(0.000000, 355.000000)">
                    <g id="Icon/Participants" transform="translate(23.000000, 21.000000)">
                        <path d="M19.95,15.5 C18.1558576,15.5 16.7,14.0441424 16.7,12.25 C16.7,10.4558576 18.1558576,9 19.95,9 C21.7426677,9 23.189,10.4543675 23.189,12.25 C23.189,14.0456325 21.7426677,15.5 19.95,15.5 Z M19.95,14.5 C21.1891389,14.5 22.189,13.4945842 22.189,12.25 C22.189,11.0054158 21.1891389,10 19.95,10 C18.7081424,10 17.7,11.0081424 17.7,12.25 C17.7,13.4918576 18.7081424,14.5 19.95,14.5 Z M11.7,14.4 C9.59785763,14.4 7.9,12.7021424 7.9,10.6 C7.9,8.49785763 9.59785763,6.8 11.7,6.8 C13.800557,6.8 15.489,8.49625987 15.489,10.6 C15.489,12.7037401 13.800557,14.4 11.7,14.4 Z M11.7,13.4 C13.2472356,13.4 14.489,12.1524867 14.489,10.6 C14.489,9.04751328 13.2472356,7.8 11.7,7.8 C10.1501424,7.8 8.9,9.05014237 8.9,10.6 C8.9,12.1498576 10.1501424,13.4 11.7,13.4 Z M19.95,16.7 C22.9705291,16.7 26.5,18.1125581 26.5,20.225 L26.5,23.2 L13.4,23.2 L13.4,20.225 C13.4,18.1125581 16.9294709,16.7 19.95,16.7 Z M25.5,20.225 C25.5,18.9151223 22.4638496,17.7 19.95,17.7 C17.4361504,17.7 14.4,18.9151223 14.4,20.225 L14.4,22.2 L25.5,22.2 L25.5,20.225 Z M11.7,15.6 C12.4604332,15.6 13.4166133,15.7131927 14.4083028,15.9183698 L15.7293801,16.1916961 L14.5492752,16.8453817 C12.8491487,17.7871184 12.2,18.9796286 12.2,20.225 L12.2,23.2 L3.5,23.2 L3.5,19.95 C3.5,17.3700424 7.92321091,15.6 11.7,15.6 Z M11.7,16.6 C8.42991115,16.6 4.5,18.172638 4.5,19.95 L4.5,22.2 L11.2,22.2 L11.2,20.225 C11.2,18.947777 11.7339115,17.7113537 12.9865872,16.6921119 C12.5145122,16.6317208 12.0765928,16.6 11.7,16.6 Z" id="Shape"></path>
                    </g>
                </g>
            </g>
        </g>
    </g>
</svg>