<?xml version="1.0" encoding="UTF-8"?>
<svg width="20px" height="20px" viewBox="0 0 20 20" version="1.1" xmlns="http://www.w3.org/2000/svg" xmlns:xlink="http://www.w3.org/1999/xlink">
    <!-- Generator: Sketch 44.1 (41455) - http://www.bohemiancoding.com/sketch -->
    <title>Icon/Location</title>
    <desc>Created with Sketch.</desc>
    <defs></defs>
    <g id="V2" stroke="none" stroke-width="1" fill="none" fill-rule="evenodd">
        <g id="08_activiteiten_detail-copy" transform="translate(-958.000000, -985.000000)" fill-rule="nonzero" fill="#58585B">
            <g id="Algemene-info" transform="translate(930.000000, 364.000000)">
                <g id="Group-Copy-6" transform="translate(0.000000, 595.000000)">
                    <g id="Icon/Price" transform="translate(23.000000, 21.000000)">
                        <path d="M18,21 C19.4565317,21 20.8198135,20.48248 21.8924075,19.5522658 L22.2432496,19.2479956 L24.7274413,21.7182312 L24.3343532,22.0717633 C22.6060522,23.6261472 20.3731792,24.5 18,24.5 C14.0670349,24.5 10.5987585,22.0830496 9.17401606,18.5 L5.5,18.5 L5.5,15.5 L8.51393643,15.5 C8.50462983,15.3345725 8.5,15.1682438 8.5,15 C8.5,14.8317562 8.50462983,14.6654275 8.51393643,14.5 L5.5,14.5 L5.5,11.5 L9.17401606,11.5 C10.5987585,7.91695041 14.0670349,5.5 18,5.5 C20.3667299,5.5 22.6088907,6.37640565 24.3343532,7.92823669 L24.7263339,8.28077285 L22.2556778,10.751429 L21.9040568,10.4491584 C20.8225743,9.51946287 19.4493646,9 18,9 C16.0375283,9 14.2390152,9.95630621 13.1320454,11.5 L18.5,11.5 L18.5,14.5 L12.022755,14.5 C12.007616,14.6702695 12,14.8358487 12,15 C12,15.1641513 12.007616,15.3297305 12.022755,15.5 L18.5,15.5 L18.5,18.5 L13.1315659,18.5 C14.2381496,20.0458819 16.031589,21 18,21 Z M18,22 C15.3608972,22 12.9896548,20.528813 11.796252,18.2304076 L11.4170018,17.5 L17.5,17.5 L17.5,16.5 L11.1500509,16.5 L11.0856422,16.0749027 C11.0290697,15.7015242 11,15.3500445 11,15 C11,14.6499555 11.0290697,14.2984758 11.0856422,13.9250973 L11.1500509,13.5 L17.5,13.5 L17.5,12.5 L11.4170018,12.5 L11.796252,11.7695924 C12.9879637,9.47444386 15.3674524,8 18,8 C19.5328808,8 20.9941796,8.49857721 22.1934774,9.3994158 L23.2620659,8.33082734 C21.7803491,7.15595374 19.9374227,6.5 18,6.5 C14.373847,6.5 11.1885931,8.79716189 9.99114521,12.1673983 L9.87297154,12.5 L6.5,12.5 L6.5,13.5 L9.62426576,13.5 L9.55636689,14.0601657 C9.51864222,14.3713942 9.5,14.6813211 9.5,15 C9.5,15.3186789 9.51864222,15.6286058 9.55636689,15.9398343 L9.62426576,16.5 L6.5,16.5 L6.5,17.5 L9.87297154,17.5 L9.99114521,17.8326017 C11.1885931,21.2028381 14.373847,23.5 18,23.5 C19.9429149,23.5 21.7783573,22.8464439 23.2609492,21.6702245 L22.1857304,20.6010463 C20.9940677,21.502783 19.5396769,22 18,22 Z" id="Shape"></path>
                    </g>
                </g>
            </g>
        </g>
    </g>
</svg>