<?xml version="1.0" encoding="UTF-8"?>
<svg width="22px" height="20px" viewBox="0 0 22 20" version="1.1" xmlns="http://www.w3.org/2000/svg" xmlns:xlink="http://www.w3.org/1999/xlink">
    <!-- Generator: Sketch 44.1 (41455) - http://www.bohemiancoding.com/sketch -->
    <title>Icon/Regio</title>
    <desc>Created with Sketch.</desc>
    <defs></defs>
    <g id="Homepage" stroke="none" stroke-width="1" fill="none" fill-rule="evenodd">
        <g id="04_okra_in_je_buurt_zoekresultaat" transform="translate(-134.000000, -1351.000000)" fill-rule="nonzero" fill="#58585B">
            <g id="Regio-Oost-Brabant" transform="translate(130.000000, 1346.000000)">
                <g id="Icon/Regio" transform="translate(0.201172, 0.316895)">
                    <path d="M5,15 L17,15 C17.2761424,15 17.5,14.7761424 17.5,14.5 C17.5,14.2238576 17.2761424,14 17,14 L5,14 C4.72385763,14 4.5,14.2238576 4.5,14.5 C4.5,14.7761424 4.72385763,15 5,15 Z" id="Path-7-Copy"></path>
                    <path d="M20,15 L22,15 C22.2761424,15 22.5,14.7761424 22.5,14.5 C22.5,14.2238576 22.2761424,14 22,14 L20,14 C19.7238576,14 19.5,14.2238576 19.5,14.5 C19.5,14.7761424 19.7238576,15 20,15 Z" id="Path-7-Copy-3"></path>
                    <path d="M5,20 L17,20 C17.2761424,20 17.5,19.7761424 17.5,19.5 C17.5,19.2238576 17.2761424,19 17,19 L5,19 C4.72385763,19 4.5,19.2238576 4.5,19.5 C4.5,19.7761424 4.72385763,20 5,20 Z" id="Path-7-Copy-2"></path>
                    <path d="M20,20 L22,20 C22.2761424,20 22.5,19.7761424 22.5,19.5 C22.5,19.2238576 22.2761424,19 22,19 L20,19 C19.7238576,19 19.5,19.2238576 19.5,19.5 C19.5,19.7761424 19.7238576,20 20,20 Z" id="Path-7-Copy-4"></path>
                    <path d="M9.5,5.5 L9.5,24 C9.5,24.2761424 9.72385763,24.5 10,24.5 C10.2761424,24.5 10.5,24.2761424 10.5,24 L10.5,5.5 C10.5,5.22385763 10.2761424,5 10,5 C9.72385763,5 9.5,5.22385763 9.5,5.5 Z" id="Path-8"></path>
                    <path d="M25.0000657,9.5 C25.2761824,9.50003629 25.5,9.72388329 25.5,10 L25.5,24 C25.5,24.2761552 25.2761224,24.5000181 24.9999671,24.5 L4.99996715,24.4986858 C4.7238376,24.4986677 4.5,24.2748154 4.5,23.9986858 L4.5,5.5 C4.5,5.22385763 4.72385763,5 5,5 L15,5 C15.2761424,5 15.5,5.22385763 15.5,5.5 L15.5,9.49875154 L25.0000657,9.5 Z M24.5,10.4999343 L14.9999343,10.4986858 C14.7238176,10.4986495 14.5,10.2748025 14.5,9.99868583 L14.5,6 L5.5,6 L5.5,23.4987187 L24.5,23.4999671 L24.5,10.4999343 Z" id="Path-5"></path>
                    <path d="M14.5,10 L14.5,24 C14.5,24.2761424 14.7238576,24.5 15,24.5 C15.2761424,24.5 15.5,24.2761424 15.5,24 L15.5,10 C15.5,9.72385763 15.2761424,9.5 15,9.5 C14.7238576,9.5 14.5,9.72385763 14.5,10 Z" id="Path-6"></path>
                    <path d="M5,10.5 L15,10.5 C15.2761424,10.5 15.5,10.2761424 15.5,10 C15.5,9.72385763 15.2761424,9.5 15,9.5 L5,9.5 C4.72385763,9.5 4.5,9.72385763 4.5,10 C4.5,10.2761424 4.72385763,10.5 5,10.5 Z" id="Path-7"></path>
                </g>
            </g>
        </g>
    </g>
</svg>