<?xml version="1.0" encoding="UTF-8"?>
<svg width="27px" height="26px" viewBox="0 0 27 26" version="1.1" xmlns="http://www.w3.org/2000/svg" xmlns:xlink="http://www.w3.org/1999/xlink">
    <!-- Generator: Sketch 44.1 (41455) - http://www.bohemiancoding.com/sketch -->
    <title>Shape</title>
    <desc>Created with Sketch.</desc>
    <defs></defs>
    <g id="V2" stroke="none" stroke-width="1" fill="none" fill-rule="evenodd">
        <g id="05_okra_in_je_buurt_Detail" transform="translate(-957.000000, -565.000000)" stroke="#58585B" fill-rule="nonzero">
            <g id="Algemene-info" transform="translate(930.000000, 458.000000)">
                <g id="Group" transform="translate(0.000000, 85.000000)">
                    <path d="M33.0277778,33.3194444 C35.0277778,37.25 38.25,40.4583333 42.1805556,42.4722222 L45.2361111,39.4166667 C45.6111111,39.0416667 46.1666667,38.9166667 46.6527778,39.0833333 C48.2083333,39.5972222 49.8888889,39.875 51.6111111,39.875 C52.375,39.875 53,40.5 53,41.2638889 L53,46.1111111 C53,46.875 52.375,47.5 51.6111111,47.5 C38.5694444,47.5 28,36.9305556 28,23.8888889 C28,23.125 28.625,22.5 29.3888889,22.5 L34.25,22.5 C35.0138889,22.5 35.6388889,23.125 35.6388889,23.8888889 C35.6388889,25.625 35.9166667,27.2916667 36.4305556,28.8472222 C36.5833333,29.3333333 36.4722222,29.875 36.0833333,30.2638889 L33.0277778,33.3194444 Z" id="Shape"></path>
                </g>
            </g>
        </g>
    </g>
</svg>