<?xml version="1.0" encoding="UTF-8"?>
<svg width="24px" height="24px" viewBox="0 0 24 24" version="1.1" xmlns="http://www.w3.org/2000/svg" xmlns:xlink="http://www.w3.org/1999/xlink">
    <!-- Generator: Sketch 44.1 (41455) - http://www.bohemiancoding.com/sketch -->
    <title>Icon/Location</title>
    <desc>Created with Sketch.</desc>
    <defs></defs>
    <g id="V2" stroke="none" stroke-width="1" fill="none" fill-rule="evenodd">
        <g id="08_activiteiten_detail-copy" transform="translate(-956.000000, -673.000000)" fill="#58585B">
            <g id="Algemene-info" transform="translate(930.000000, 364.000000)">
                <g id="Group-Copy-2" transform="translate(0.000000, 285.000000)">
                    <g id="Icon/Time" transform="translate(23.000000, 21.000000)">
                        <g id="Group-2" transform="translate(3.000000, 3.000000)">
                            <path d="M23.7055234,5.21034187 L21.6419244,7.65786629 L15.8158894,2.76906307 L17.8794885,0.32153864 L23.7055234,5.21034187 Z M18.0009244,1.72886629 L17.2265234,2.64734187 L21.5204885,6.25053864 L22.2948894,5.33206307 L18.0009244,1.72886629 Z M8.17212073,2.77037416 L2.35842232,7.64678786 L0.294476611,5.19885225 L6.12280172,0.320797533 L8.17212073,2.77037416 Z M5.9976111,1.7296074 L1.70593621,5.32155269 L2.4799905,6.23961708 L6.76429209,2.64603078 L5.9976111,1.7296074 Z M12.0002064,2.87920247 C17.7433488,2.87920247 22.4002064,7.53606009 22.4002064,13.2792025 C22.4002064,19.0223448 17.7433488,23.6792025 12.0002064,23.6792025 C6.24977699,23.6792025 1.60020641,19.0260608 1.60020641,13.2792025 C1.60020641,7.53606009 6.25706403,2.87920247 12.0002064,2.87920247 Z M12.0002064,3.87920247 C6.80934878,3.87920247 2.60020641,8.08834484 2.60020641,13.2792025 C2.60020641,18.4739478 6.80223368,22.6792025 12.0002064,22.6792025 C17.191064,22.6792025 21.4002064,18.4700601 21.4002064,13.2792025 C21.4002064,8.08834484 17.191064,3.87920247 12.0002064,3.87920247 Z" id="Shape" fill-rule="nonzero"></path>
                            <polygon id="Line" fill-rule="nonzero" points="12.5 6 11.5 6 11.5 13.7071068 15.7119453 17.9190521 16.4190521 17.2119453 12.5 13.2928932"></polygon>
                        </g>
                    </g>
                </g>
            </g>
        </g>
    </g>
</svg>