<?xml version="1.0" encoding="UTF-8"?>
<svg width="20px" height="24px" viewBox="0 0 20 24" version="1.1" xmlns="http://www.w3.org/2000/svg" xmlns:xlink="http://www.w3.org/1999/xlink">
    <!-- Generator: Sketch 44.1 (41455) - http://www.bohemiancoding.com/sketch -->
    <title>Icon/Location</title>
    <desc>Created with Sketch.</desc>
    <defs></defs>
    <g id="V2" stroke="none" stroke-width="1" fill="none" fill-rule="evenodd">
        <g id="08_activiteiten_detail-copy" transform="translate(-958.000000, -883.000000)" fill-rule="nonzero" fill="#58585B">
            <g id="Algemene-info" transform="translate(930.000000, 364.000000)">
                <g id="Group-Copy-5" transform="translate(0.000000, 495.000000)">
                    <g id="Icon/Transport" transform="translate(23.000000, 21.000000)">
                        <path d="M21.625,9.13157895 L8.375,9.13157895 L8.375,13.9210526 L21.625,13.9210526 L21.625,9.13157895 Z M7.375,14.9210526 L7.375,8.13157895 L22.625,8.13157895 L22.625,14.9210526 L7.375,14.9210526 Z M20.34375,20.8684211 C21.0541506,20.8684211 21.625,20.3118033 21.625,19.6315789 C21.625,18.9513546 21.0541506,18.3947368 20.34375,18.3947368 C19.6333494,18.3947368 19.0625,18.9513546 19.0625,19.6315789 C19.0625,20.3118033 19.6333494,20.8684211 20.34375,20.8684211 Z M20.34375,21.8684211 C19.0866362,21.8684211 18.0625,20.8698174 18.0625,19.6315789 C18.0625,18.3933405 19.0866362,17.3947368 20.34375,17.3947368 C21.6008638,17.3947368 22.625,18.3933405 22.625,19.6315789 C22.625,20.8698174 21.6008638,21.8684211 20.34375,21.8684211 Z M9.65625,20.8684211 C10.3666506,20.8684211 10.9375,20.3118033 10.9375,19.6315789 C10.9375,18.9513546 10.3666506,18.3947368 9.65625,18.3947368 C8.94584942,18.3947368 8.375,18.9513546 8.375,19.6315789 C8.375,20.3118033 8.94584942,20.8684211 9.65625,20.8684211 Z M9.65625,21.8684211 C8.39913616,21.8684211 7.375,20.8698174 7.375,19.6315789 C7.375,18.3933405 8.39913616,17.3947368 9.65625,17.3947368 C10.9133638,17.3947368 11.9375,18.3933405 11.9375,19.6315789 C11.9375,20.8698174 10.9133638,21.8684211 9.65625,21.8684211 Z M5,20.2105263 L5,8.63157895 C5,4.68634589 8.1309196,3.5 15,3.5 C21.8690804,3.5 25,4.68634589 25,8.63157895 L25,20.2105263 C25,21.2677149 24.5643212,22.2596462 23.8125,22.9986566 L23.8125,24.8421053 C23.8125,25.7605999 23.0541948,26.5 22.125,26.5 L20.9375,26.5 C20.0083052,26.5 19.25,25.7605999 19.25,24.8421053 L19.25,24.1842105 L10.75,24.1842105 L10.75,24.8421053 C10.75,25.7605999 9.99169477,26.5 9.0625,26.5 L7.875,26.5 C6.94580523,26.5 6.1875,25.7605999 6.1875,24.8421053 L6.1875,22.9986566 C5.43567882,22.2596462 5,21.2677149 5,20.2105263 Z M6,20.2105263 C6,21.0508234 6.37332044,21.8390824 7.01763631,22.4055396 L7.1875,22.5548771 L7.1875,24.8421053 C7.1875,25.2025859 7.49251849,25.5 7.875,25.5 L9.0625,25.5 C9.44498151,25.5 9.75,25.2025859 9.75,24.8421053 L9.75,23.1842105 L20.25,23.1842105 L20.25,24.8421053 C20.25,25.2025859 20.5550185,25.5 20.9375,25.5 L22.125,25.5 C22.5074815,25.5 22.8125,25.2025859 22.8125,24.8421053 L22.8125,22.5548771 L22.9823637,22.4055396 C23.6266796,21.8390824 24,21.0508234 24,20.2105263 L24,8.63157895 C24,5.50345503 21.3517529,4.5 15,4.5 C8.64824707,4.5 6,5.50345503 6,8.63157895 L6,20.2105263 Z" id="Shape"></path>
                    </g>
                </g>
            </g>
        </g>
    </g>
</svg>